<svg width="1920" height="1825" fill="none" xmlns="http://www.w3.org/2000/svg"><g opacity=".24" fill="#323232" clip-path="url(#clip0)"><path d="M557.729 660.143l142.656-61.766-29.001-13.638 142.655-61.765-30.882-14.58 142.812-61.765-26.807-12.698 142.818-61.765-29.16-13.639 142.81-61.765v-.157l-26.65-12.541 142.66-61.765-29.01-13.795 142.66-61.765-30.88-14.58 142.81-61.765-26.81-12.541 142.82-61.765-29.16-13.796 142.81-61.765-53.77-25.239-142.66 61.765 29.01 13.639-142.66 61.765 26.65 12.698-142.66 61.765 30.89 14.579-142.82 61.766 29.16 13.638-142.81 61.766 26.81 12.697-142.817 61.766h.157-.157l29.002 13.795-142.656 61.765 26.65 12.541-142.656 61.766 30.883 14.579-142.813 61.765 29.158 13.795-142.812 61.766 26.807 12.541-142.813 61.765 53.77 25.396 142.813-61.765-26.807-12.698zm110.047 52.042l142.812-61.765-29.158-13.796 142.812-61.765-30.882-14.579 142.66-61.765-26.65-12.541 142.65-61.766-29-13.795 142.66-61.765h.15l-26.8-12.698 142.81-61.765-29.16-13.639 142.81-61.922-30.88-14.422 142.66-61.765-26.65-12.698 142.65-61.766-29-13.795 142.66-61.765-53.62-25.24L1640.5 8.94l29.16 13.639-142.81 61.765 26.8 12.698-142.81 61.765 30.88 14.579-142.65 61.765 29 13.639-142.66 61.765 26.65 12.698-142.65 61.765-.16.157 29.16 13.639-142.815 61.765 26.807 12.698-142.812 61.765 30.882 14.579-142.656 61.765 29.002 13.639-142.656 61.765 26.65 12.698-142.656 61.765 53.614 25.239 142.812-61.765-26.806-12.541zm112.23 52.834l142.813-61.766-29.159-13.638 142.81-61.765-30.88-14.58 142.81-61.765-26.8-12.698 142.65-61.765-29-13.639 142.66-61.765.15-.157-26.8-12.541 142.81-61.765-29.16-13.795 142.81-61.765-30.88-14.58 142.66-61.765-26.65-12.541 142.65-61.765-29-13.796 142.66-61.765L1895.54.164 1752.73 61.93l29.16 13.639-142.81 61.765 26.8 12.698-142.81 61.765 30.88 14.579-142.65 61.766 29 13.638-142.66 61.765 26.65 12.698-142.65 61.766h-.16l29.16 13.795-142.81 61.765 26.8 12.541-142.81 61.766 30.883 14.579-142.656 61.765 29.001 13.795-142.655 61.766 26.806 12.541-142.812 61.765 53.77 25.396 142.656-61.766-26.807-12.697zm110.113 51.885l142.811-61.765-29-13.638 142.66-61.766-30.89-14.579 142.82-61.765-26.81-12.698 142.66-61.765-29.01-13.639 142.82-61.765h-.16l.16-.157-26.81-12.541 142.81-61.765-29.16-13.795 142.82-61.766-30.89-14.579 142.66-61.765-26.65-12.541 142.66-61.765-29.01-13.796 142.66-61.765-53.61-25.24-142.82 61.766 29.16 13.639-142.81 61.765 26.81 12.698-142.82 61.765 30.89 14.579-142.66 61.765 29 13.639-142.65 61.765 26.65 12.698-142.66 61.765h-.16l29.16 13.796-142.81 61.765 26.81 12.541-142.82 61.765 31.04 14.58-142.81 61.765 29.002 13.795-142.656 61.765 26.807 12.541L720.5 865.972l53.77 25.396 142.656-61.766-26.807-12.698zM2026.29 190.949l142.81-61.922-53.77-25.239-142.66 61.765 29 13.639-142.65 61.922 26.65 12.541-142.66 61.765 30.88 14.579-142.81 61.766 29.16 13.638-142.81 61.922 26.8 12.541-142.81 61.766h.16l-.16.156 29 13.639-142.65 61.765 26.65 12.698-142.66 61.765 30.88 14.58L1059.83 768l29.16 13.638-142.813 61.766 26.807 12.697-142.656 61.766 53.614 25.239 142.808-61.765-26.803-12.542 142.653-61.765-29-13.795 142.81-61.765-30.88-14.58 142.66-61.765-26.81-12.541 142.81-61.765-29.16-13.796 142.82-61.765-26.65-12.698 142.65-61.765-29-13.638 142.66-61.766-30.89-14.579 142.82-61.765-26.81-12.698 142.81-61.765-29.15-13.639zM445.507 607.31l142.655-61.765-29.001-13.796 142.656-61.765-30.883-14.579 142.813-61.765-26.807-12.541 142.812-61.766-29.158-13.795 142.816-61.765h-.16.16l-26.65-12.698 142.65-61.765-29-13.639 142.66-61.765-30.89-14.58L1385 17.563l-26.81-12.698L1501-56.902l-29.16-13.638 142.82-61.765-53.77-25.396-142.66 61.765 29 13.639-142.65 61.922 26.65 12.54-142.66 61.766 30.88 14.58-142.81 61.764 29.16 13.639-142.814 61.922 26.807 12.541-142.812 61.765h.157l-.157.157 29.001 13.639-142.656 61.765 26.65 12.698-142.655 61.765 30.882 14.579-142.812 61.765 29.158 13.639-142.813 61.765 26.807 12.698-142.813 61.765 53.771 25.239 142.656-61.765-26.65-12.541zm-554.461-261.482l142.655-61.766L4.7 270.267l142.656-61.765-30.883-14.579 142.813-61.765-26.807-12.542 142.812-61.765-29.158-13.795L488.946-17.71h-.157.157l-26.807-12.698 142.813-61.766-29.002-13.638 142.656-61.765-30.883-14.58 142.813-61.765-26.807-12.698 142.656-61.765-29.002-13.638 142.817-61.766-53.77-25.396-142.66 61.766 29.001 13.638-142.812 61.922 26.807 12.541-142.656 61.766 30.882 14.579-142.812 61.765 29.001 13.639-142.655 61.921 26.806 12.542L292.52 18.66v.157l29.001 13.638-142.812 61.766 26.806 12.697L62.86 168.684l30.882 14.579-142.812 61.765 29.158 13.639-142.813 61.765 26.807 12.698-142.812 61.765 53.77 25.239 142.656-61.765-26.65-12.541zM1.065 397.717l142.812-61.765-29.158-13.639 142.812-61.922-30.882-14.422 142.656-61.922-26.807-12.541 142.812-61.765-29.001-13.796L598.965 34.18h.157l-26.807-12.698 142.656-61.765-29.002-13.639 142.813-61.765-30.883-14.579 142.656-61.765-26.807-12.698 142.812-61.765-29-13.639 142.65-61.765-53.61-25.396-142.811 61.765 29.001 13.796-142.655 61.765 26.806 12.541-142.812 61.765 30.882 14.579-142.655 61.766 29.001 13.795L518.544-3.757l26.807 12.541L402.695 70.55v.156h-.156l29.001 13.639-142.656 61.765 26.807 12.698-142.812 61.765 30.882 14.579-142.656 61.766 29.002 13.638-142.813 61.765 26.807 12.698-142.656 61.766 53.614 25.395 142.812-61.765-26.806-12.698zm112.285 52.986l142.812-61.766-29.158-13.795 142.813-61.765-30.883-14.579 142.656-61.766-26.65-12.541 142.656-61.765-29.002-13.795L711.25 87.165h.157L684.6 74.468l142.812-61.766L798.254-.936l142.813-61.922-30.883-14.423 142.656-61.765-26.81-12.698 142.82-61.765-29.01-13.639 142.66-61.922-53.61-25.239-142.82 61.766 29.01 13.638-142.66 61.765 26.807 12.698-142.813 61.766 30.883 14.579-142.656 61.765 29.001 13.639L630.83 49.072l26.806 12.698-142.655 61.765-.157.157 29.158 13.638-142.812 61.765 26.806 12.698-142.812 61.766 30.882 14.579-142.655 61.765 29.001 13.639-142.656 61.765 26.65 12.698-142.655 61.765 53.613 25.239 142.812-61.765-26.806-12.541zm110.004 51.89l142.812-61.765-29.158-13.795 142.813-61.765-30.883-14.58 142.656-61.765-26.65-12.541L707.6 214.617l-29.002-13.796 142.656-61.765h.157l-26.807-12.698 142.812-61.765-29.158-13.639L1051.07-10.81l-30.88-14.579 142.65-61.765-26.8-12.698 142.81-61.765-29-13.639 142.65-61.765-53.61-25.396-142.81 61.765 29.16 13.639-142.82 61.922 26.81 12.541-142.812 61.765 30.882 14.58L854.645 25.56l29.001 13.638L740.99 101.12l26.65 12.541-142.655 61.766-.157.156 29.158 13.639-142.813 61.765 26.807 12.698-142.812 61.765 30.882 14.579-142.655 61.766 29.001 13.638-142.656 61.765 26.65 12.698-142.656 61.766 53.614 25.239 142.812-61.766-26.806-12.541zm109.871 51.735l142.656-61.766-29.001-13.638 142.655-61.765-30.882-14.579 142.812-61.766-26.806-12.698 142.812-61.765-29.158-13.639 142.812-61.922h-.156.156l-26.65-12.697 142.655-61.766-29-13.638 142.66-61.765-30.89-14.58 142.82-61.765-26.81-12.698 142.81-61.765-29.16-13.639 142.82-61.765-53.77-25.396-142.66 61.766 29 13.795-142.81 61.765 26.81 12.541L1076.29.95l30.88 14.579-142.81 61.765 29.158 13.795-142.813 61.766 26.807 12.541-142.813 61.765.157.157h-.157l29.002 13.638-142.656 61.922 26.65 12.541-142.656 61.766 30.883 14.579-142.813 61.765 29.159 13.639-142.813 61.922 26.807 12.541-142.813 61.765 53.771 25.396 142.655-61.765-26.65-12.698zm-666.817-314.473l142.813-61.766-29.002-13.638 142.656-61.766-30.882-14.579L34.805 26.341 7.998 13.643l142.656-61.765-29.001-13.639 142.812-61.765h-.156l.156-.157-26.806-12.541 142.812-61.765-29.158-13.795 142.812-61.766-30.882-14.579 142.656-61.765-26.65-12.541L721.904-424.2l-29.001-13.796 142.656-61.765L781.945-525l-142.812 61.765 29.158 13.639-142.813 61.765 26.807 12.698-142.812 61.765 30.882 14.579-142.656 61.766 29.002 13.638-142.656 61.765 26.65 12.698L68.039-87.156h-.157l29.159 13.795-142.813 61.765L-18.965.945l-142.813 61.766 30.883 14.579-142.656 61.765 29.002 13.795-142.656 61.765 26.807 12.542-142.813 61.765 53.77 25.396 142.656-61.766-26.807-12.697zm112.231 52.987l142.812-61.765-29.001-13.639 142.656-61.765-30.883-14.579 142.813-61.765-26.807-12.698L262.885 4.866 233.883-8.773l142.813-61.922h-.157.157l-26.807-12.698 142.813-61.765-29.002-13.639 142.656-61.765-30.883-14.579 142.813-61.765-26.807-12.698 142.656-61.765-29.002-13.639 142.813-61.765-53.77-25.396-142.813 61.765 29.158 13.796-142.812 61.765 26.807 12.541-142.813 61.765 30.883 14.579-142.656 61.766 29.001 13.795-142.655 61.765 26.806 12.541L180.27-34.326v.157l29.001 13.639L66.459 41.392l26.806 12.541-142.655 61.765 30.882 14.579-142.812 61.766 29.001 13.638-142.656 61.922 26.807 12.541-142.812 61.766 53.77 25.395 142.656-61.765-26.807-12.698z"/><path d="M-585.029 1412.61l142.656-61.76-29.001-13.64 142.655-61.77-30.882-14.58 142.812-61.76-26.806-12.7 142.812-61.76-29.158-13.64 142.813-61.77v-.16l-26.65-12.54 142.655-61.762-29.001-13.795 142.656-61.765-30.883-14.579 142.813-61.766-26.807-12.541 142.812-61.765-29.158-13.795 142.813-61.766-53.77-25.239-142.656 61.766 29.001 13.638-142.655 61.765 26.649 12.698-142.655 61.766 30.882 14.579-142.812 61.765 29.158 13.638-142.813 61.768 26.807 12.7-142.812 61.76h.156-.156l29.001 13.8-142.656 61.76 26.65 12.54-142.656 61.77 30.883 14.58-142.813 61.76 29.159 13.8-142.813 61.76 26.807 12.54-142.813 61.77 53.771 25.4 142.812-61.77-26.807-12.7zm110.074 52.04l142.813-61.76-29.159-13.8 142.813-61.76-30.883-14.58 142.656-61.77-26.65-12.54 142.656-61.76-29.002-13.8 142.656-61.76h.157l-26.807-12.7 142.813-61.77-29.158-13.63 142.812-61.926-30.882-14.422 142.655-61.766-26.65-12.698 142.656-61.765-29.001-13.795 142.655-61.765-53.613-25.239-142.813 61.765 29.158 13.638-142.812 61.766 26.807 12.697-142.813 61.766 30.883 14.579-142.656 61.765 29.001 13.64-142.655 61.76 26.65 12.7-142.656 61.77-.157.15 29.158 13.64-142.812 61.77 26.807 12.7-142.813 61.76 30.883 14.58-142.656 61.77 29.001 13.63-142.655 61.77 26.65 12.7-142.656 61.76 53.613 25.24 142.813-61.76-26.807-12.55zm112.227 52.84l142.812-61.77-29.158-13.64 142.812-61.76-30.882-14.58 142.812-61.77-26.806-12.69 142.655-61.77-29.001-13.64 142.656-61.76.156-.16-26.806-12.54 142.812-61.77-29.158-13.79 142.813-61.77-30.883-14.576 142.656-61.765-26.65-12.541 142.656-61.766-29.002-13.795 142.656-61.765-53.614-25.239-142.812 61.765 29.158 13.639-142.812 61.765 26.806 12.698-142.812 61.765 30.882 14.579-142.655 61.766 29.001 13.64-142.656 61.76 26.65 12.7-142.655 61.77h-.157l29.158 13.79-142.813 61.77 26.807 12.54-142.812 61.76 30.882 14.58-142.656 61.77 29.002 13.79-142.656 61.77 26.807 12.54-142.813 61.76 53.771 25.4 142.655-61.76-26.806-12.7zm110.062 51.88l142.813-61.76-29.002-13.64L3.801 1432.2l-30.883-14.58 142.813-61.76-26.807-12.7 142.656-61.76-29.002-13.64 142.813-61.77h-.157l.157-.15-26.807-12.55 142.813-61.76-29.158-13.8 142.812-61.76-30.882-14.58 142.655-61.765-26.65-12.542 142.656-61.765-29.001-13.795 142.655-61.765-53.613-25.239-142.813 61.765 29.159 13.638-142.813 61.766 26.807 12.698-142.813 61.764 30.883 14.58-142.656 61.77 29.002 13.63-142.656 61.77 26.65 12.7-142.656 61.76h-.157l29.158 13.8-142.812 61.76 26.807 12.54-142.813 61.77 31.04 14.58-142.813 61.76 29.001 13.8-142.655 61.76 26.806 12.55-142.812 61.76 53.77 25.4 142.656-61.77-26.807-12.7zM883.559 943.418l142.811-61.922-53.769-25.239-142.656 61.765 29.002 13.639-142.656 61.922 26.65 12.537-142.656 61.77 30.883 14.58-142.813 61.76 29.158 13.64-142.812 61.92 26.806 12.55-142.812 61.76h.157l-.157.16 29.001 13.64-142.655 61.76 26.65 12.7-142.656 61.76 30.882 14.58-142.812 61.77 29.158 13.64-142.812 61.76 26.806 12.7-142.655 61.77 53.613 25.23 142.813-61.76-26.807-12.54L-.123 1559.5l-29.002-13.79 142.813-61.77-30.883-14.58 142.656-61.76-26.807-12.54 142.813-61.77-29.159-13.79 142.813-61.77-26.65-12.7 142.656-61.76-29.002-13.64 142.656-61.77-30.883-14.58 142.813-61.76-26.807-12.7 142.813-61.763-29.158-13.639zM-697.259 1359.78l142.656-61.77-29.002-13.79 142.656-61.77-30.883-14.58 142.813-61.76-26.807-12.54 142.813-61.77-29.158-13.79 142.812-61.768h-.157.157l-26.65-12.698 142.656-61.765-29.002-13.639 142.656-61.765-30.882-14.579L242.23 770.03l-26.807-12.698 142.813-61.765-29.158-13.638 142.812-61.766-53.77-25.395-142.656 61.765 29.002 13.638-142.656 61.922 26.65 12.542L45.805 806.4l30.883 14.579-142.813 61.765 29.158 13.639-142.812 61.922 26.807 12.541-142.813 61.764h.157l-.157.16 29.001 13.64-142.655 61.76 26.65 12.7-142.656 61.76 30.883 14.58-142.813 61.77 29.158 13.64-142.812 61.76 26.806 12.7-142.812 61.77 53.77 25.24 142.656-61.77-26.65-12.54zm-444.411-209.59l142.813-61.77-29.163-13.64 142.817-61.92-30.883-14.421 142.656-61.922-26.807-12.541 142.813-61.766-29.001-13.795 142.655-61.765h.157l-26.807-12.698 142.656-61.765-29.001-13.639 142.812-61.765-30.882-14.579 142.655-61.765-26.806-12.698 142.812-61.766-29.001-13.638 142.656-61.765-53.614-25.396-142.812 61.765 29.001 13.795-142.656 61.766 26.807 12.541-142.813 61.765 30.883 14.579-142.656 61.765 29.002 13.796-142.813 61.765 26.807 12.541-142.656 61.765v.157h-.157l29.002 13.639-142.656 61.765 26.807 12.698-142.813 61.765 30.883 14.579-142.657 61.768 29 13.64-142.81 61.76 26.81 12.7-142.66 61.76 53.61 25.4 142.82-61.77-26.81-12.69zm112.2 52.98l142.812-61.77-29.158-13.79 142.812-61.77-30.882-14.58 142.655-61.761-26.649-12.541 142.655-61.765-29.001-13.795 142.656-61.766h.156l-26.806-12.698 142.812-61.765-29.158-13.638 142.812-61.922-30.882-14.423 142.656-61.765-26.807-12.698 142.812-61.765-29.001-13.639 142.656-61.922-53.614-25.239-142.812 61.765 29.001 13.639-142.656 61.765 26.807 12.698-142.812 61.765 30.882 14.58-142.656 61.765 29.002 13.638-142.813 61.766 26.807 12.697-142.656 61.766-.156.156 29.158 13.639-142.813 61.765 26.807 12.698-142.813 61.77 30.883 14.57-142.656 61.77 29.002 13.64-142.652 61.76 26.65 12.7-142.66 61.77 53.61 25.24 142.82-61.77-26.81-12.54zm110.058 51.89l142.813-61.76-29.159-13.8 142.813-61.76-30.883-14.58 142.656-61.77-26.65-12.54 142.656-61.765-29.002-13.795 142.656-61.765h.157l-26.807-12.698 142.813-61.765-29.158-13.639 142.812-61.765-30.883-14.579 142.656-61.765-26.807-12.698 142.813-61.766-29.001-13.638 142.655-61.765-53.613-25.396-142.813 61.765 29.159 13.639-142.813 61.922 26.807 12.541-142.813 61.765 30.883 14.579-142.656 61.765 29.002 13.639-142.656 61.922 26.65 12.541-142.656 61.765-.157.157 29.158 13.639-142.812 61.76 26.807 12.7-142.813 61.77 30.883 14.58-142.656 61.76 29.001 13.64-142.655 61.77 26.65 12.69-142.655 61.77 53.61 25.24 142.815-61.77-26.807-12.54zm109.903 51.73l142.656-61.76-29.002-13.64 142.656-61.77-30.883-14.57 142.813-61.77-26.807-12.7 142.813-61.76-29.158-13.64 142.812-61.924h-.157.157l-26.65-12.698 142.656-61.765-29.002-13.638 142.656-61.766-30.882-14.579 142.812-61.765-26.807-12.698 142.813-61.765-29.158-13.639 142.812-61.765-53.77-25.396-142.656 61.766 29.002 13.795-142.813 61.765 26.807 12.541-142.656 61.765 30.883 14.58-142.813 61.765 29.158 13.795-142.812 61.765 26.807 12.542-142.813 61.765.157.157h-.157l29.001 13.638-142.655 61.919 26.65 12.54-142.656 61.77 30.883 14.58-142.813 61.76 29.158 13.64-142.812 61.92 26.806 12.55-142.812 61.76 53.77 25.4 142.656-61.77-26.65-12.7zm2815.889 35.28l142.66-61.77-29-13.64 142.65-61.76-30.88-14.58 142.81-61.77-26.81-12.69 142.82-61.77-29.16-13.64 142.81-61.763v-.157l-26.65-12.541 142.66-61.765-29-13.795 142.65-61.766-30.88-14.579 142.81-61.765-26.8-12.541 142.81-61.765-29.16-13.796 142.81-61.765-53.77-25.239-142.65 61.765 29 13.639-142.66 61.765 26.65 12.698-142.65 61.765 30.88 14.579-142.81 61.765 29.15 13.639-142.81 61.765 26.81 12.698-142.81 61.769h.15-.15l29 13.79-142.66 61.77 26.65 12.54-142.65 61.76 30.88 14.58-142.81 61.77 29.15 13.79-142.81 61.77 26.81 12.54-142.81 61.76 53.77 25.4 142.81-61.76-26.81-12.7zm-112.34-52.83l142.65-61.76-29-13.8 142.66-61.76-30.88-14.58 142.81-61.77-26.81-12.54 142.81-61.76-29.15-13.799 142.81-61.765h-.16.16l-26.65-12.698 142.65-61.766-29-13.638 142.66-61.765-30.88-14.579 142.81-61.766-26.81-12.698 142.81-61.765-29.15-13.638 142.81-61.766-53.77-25.396-142.66 61.766 29 13.638-142.65 61.922 26.65 12.541-142.66 61.766 30.88 14.579-142.81 61.765 29.16 13.639-142.81 61.922 26.8 12.541-142.81 61.765h.16l-.16.157 29 13.638-142.65 61.77 26.65 12.69-142.66 61.77 30.88 14.58-142.81 61.76 29.16 13.64-142.81 61.77 26.8 12.69-142.81 61.77 53.77 25.24 142.66-61.77-26.65-12.54zm-554.46-261.48l142.65-61.765-29-13.795 142.66-61.765-30.89-14.58 142.82-61.765-26.81-12.541 142.81-61.765-29.16-13.796 142.82-61.765h-.16.16l-26.81-12.698 142.81-61.765-29-13.639 142.66-61.765-30.89-14.579 142.82-61.765-26.81-12.698 142.66-61.765-29.01-13.639 142.82-61.765-53.77-25.396-142.66 61.765 29 13.639-142.81 61.922 26.81 12.541-142.66 61.765 30.88 14.579-142.81 61.766 29 13.638-142.65 61.922 26.8 12.541-142.81 61.766v.156l29 13.639-142.81 61.765 26.81 12.698-142.66 61.765 30.88 14.579-142.81 61.766 29.16 13.638-142.81 61.761 26.8 12.7-142.81 61.77 53.77 25.24 142.66-61.77-26.65-12.54zm110.08 51.88l142.81-61.76-29.16-13.64 142.82-61.924-30.89-14.422 142.66-61.922-26.81-12.541 142.81-61.765-29-13.796 142.66-61.765h.16l-26.81-12.698 142.65-61.765-29-13.639 142.82-61.765-30.89-14.579 142.66-61.765-26.81-12.698 142.81-61.765-29-13.639 142.66-61.765-53.61-25.396-142.82 61.765 29 13.795-142.65 61.766 26.81 12.541-142.82 61.765 30.89 14.579-142.66 61.765 29 13.796-142.81 61.765 26.81 12.541-142.66 61.765v.157h-.16l29 13.639-142.65 61.765 26.8 12.698-142.81 61.765 30.88 14.579-142.65 61.765 29 13.639-142.81 61.769 26.8 12.69-142.65 61.77 53.61 25.4 142.82-61.77-26.81-12.7zm112.22 53l142.82-61.77-29.16-13.79 142.81-61.77-30.88-14.579 142.65-61.765-26.65-12.541 142.66-61.765-29-13.796 142.66-61.765h.15l-26.8-12.698 142.81-61.765-29.16-13.639 142.81-61.922-30.88-14.422 142.66-61.765-26.81-12.698 142.81-61.765-29-13.639 142.66-61.922-53.62-25.239-142.81 61.765 29 13.639-142.66 61.765 26.81 12.698-142.81 61.765 30.88 14.579-142.65 61.766 29 13.638-142.82 61.765 26.81 12.698-142.65 61.766-.16.156 29.16 13.639-142.82 61.765 26.81 12.698-142.81 61.765 30.88 14.579-142.65 61.769 29 13.64-142.66 61.76 26.65 12.7-142.65 61.76 53.61 25.24 142.81-61.76-26.81-12.54zm110.12 51.88l142.81-61.77-29.15-13.79 142.81-61.77-30.88-14.58 142.65-61.761-26.65-12.541 142.66-61.766-29-13.795 142.65-61.765h.16l-26.81-12.698 142.81-61.765-29.15-13.639 142.81-61.765-30.88-14.579 142.65-61.765-26.8-12.698 142.81-61.766-29-13.638 142.65-61.765-53.61-25.396-142.81 61.765 29.15 13.639-142.81 61.922 26.81 12.541-142.81 61.765 30.88 14.579-142.66 61.765 29 13.639-142.65 61.922 26.65 12.541-142.66 61.765-.15.157 29.15 13.639-142.81 61.765 26.81 12.698-142.81 61.77 30.88 14.57-142.66 61.77 29 13.64-142.65 61.76 26.65 12.7-142.66 61.77 53.62 25.24 142.81-61.77-26.81-12.54zm109.87 51.73l142.66-61.76-29.01-13.64 142.66-61.77-30.88-14.57 142.81-61.77-26.81-12.7 142.82-61.763-29.16-13.639 142.81-61.922h-.16.16l-26.65-12.698 142.66-61.765-29.01-13.638 142.66-61.766-30.88-14.579 142.81-61.765-26.81-12.698 142.82-61.765-29.16-13.639 142.81-61.765-53.77-25.396-142.66 61.765 29.01 13.796-142.82 61.765 26.81 12.541-142.66 61.765 30.89 14.579L2413 759.219l29.16 13.795-142.81 61.765 26.81 12.541-142.82 61.766.16.156h-.16l29.01 13.639-142.66 61.922 26.65 12.541-142.66 61.766 30.89 14.58-142.82 61.76 29.16 13.64-142.81 61.92 26.81 12.55-142.82 61.76 53.77 25.4 142.66-61.77-26.65-12.7zm-666.92-314.471l142.81-61.765-29-13.639 142.65-61.765-30.88-14.579 142.81-61.765-26.8-12.698 142.65-61.765-29-13.639L1713 558.399h-.15l.15-.157-26.8-12.541 142.81-61.765-29.16-13.796 142.81-61.765-30.88-14.579 142.66-61.765-26.65-12.541 142.65-61.766-29-13.795 142.66-61.765-53.62-25.239-142.81 61.765 29.16 13.639-142.81 61.765 26.8 12.698-142.81 61.765 30.88 14.579-142.65 61.765 29 13.639-142.66 61.765 26.65 12.698-142.65 61.765h-.16l29.16 13.796-142.81 61.765 26.8 12.541-142.81 61.765 30.88 14.579-142.65 61.766 29 13.795-142.66 61.765 26.81 12.541-142.812 61.766 53.77 25.396 142.652-61.766-26.8-12.698zm112.28 52.988l142.81-61.765-29-13.639 142.66-61.765-30.89-14.579 142.82-61.765-26.81-12.698 142.65-61.766-29-13.638 142.82-61.922h-.16.16l-26.81-12.698 142.81-61.765-29-13.639 142.66-61.765-30.89-14.579 142.82-61.765-26.81-12.698 142.65-61.766-29-13.638 142.82-61.765-53.77-25.396-142.82 61.765 29.16 13.795-142.81 61.766 26.81 12.541-142.82 61.765 30.89 14.579-142.66 61.765 29 13.796-142.65 61.765 26.8 12.541-142.81 61.765v.157l29 13.639-142.81 61.922 26.81 12.541-142.66 61.765 30.88 14.579-142.81 61.765 29 13.639-142.65 61.922 26.8 12.541-142.81 61.761 53.77 25.4 142.66-61.765-26.81-12.698z"/><path d="M863.389 2094.54l142.661-61.77-29.006-13.64 142.656-61.76-30.88-14.58 142.81-61.77-26.81-12.69 142.82-61.77-29.16-13.64 142.81-61.76v-.16l-26.65-12.54 142.66-61.77-29.01-13.79 142.66-61.77-30.88-14.58 142.81-61.76-26.81-12.54 142.82-61.77-29.16-13.79 142.81-61.77-53.77-25.24-142.66 61.77 29.01 13.64-142.66 61.76 26.65 12.7-142.66 61.76 30.89 14.58-142.82 61.77 29.16 13.64-142.81 61.76 26.81 12.7-142.82 61.77h.16-.16l29 13.79-142.65 61.77 26.65 12.54-142.66 61.76 30.89 14.58-142.817 61.77 29.159 13.79-142.813 61.77 26.807 12.54-142.813 61.76 53.771 25.4 142.812-61.76-26.807-12.7zm110.078 52.05l142.813-61.77-29.16-13.79 142.81-61.77-30.88-14.58 142.66-61.76-26.65-12.54 142.65-61.77-29-13.79 142.66-61.77h.15l-26.8-12.7 142.81-61.76-29.16-13.64 142.81-61.92-30.88-14.43 142.66-61.76-26.65-12.7 142.65-61.76-29-13.8 142.66-61.76-53.62-25.24-142.81 61.76 29.16 13.64-142.81 61.77 26.8 12.69-142.81 61.77 30.88 14.58-142.65 61.76 29 13.64-142.66 61.77 26.65 12.69-142.65 61.77-.16.16 29.16 13.63-142.81 61.77 26.8 12.7-142.81 61.76 30.88 14.58-142.65 61.77 29 13.64-142.657 61.76 26.65 12.7-142.655 61.76 53.613 25.24 142.809-61.76-26.803-12.54zm112.343 52.82l142.81-61.76-29.16-13.64 142.81-61.77-30.88-14.58 142.81-61.76-26.8-12.7 142.65-61.76-29-13.64 142.66-61.77.15-.15-26.8-12.55 142.81-61.76-29.16-13.8 142.81-61.76-30.88-14.58 142.66-61.77-26.65-12.54 142.65-61.76-29-13.8 142.66-61.76-53.62-25.24-142.81 61.76 29.16 13.64-142.81 61.77 26.8 12.7-142.81 61.76 30.88 14.58-142.65 61.77 29 13.63-142.66 61.77 26.65 12.7-142.65 61.76h-.16l29.16 13.8-142.81 61.76 26.8 12.54-142.81 61.77 30.88 14.58-142.65 61.76 29 13.8-142.66 61.76 26.81 12.55-142.812 61.76 53.77 25.4 142.652-61.77-26.8-12.7zm110 51.9l142.81-61.77-29-13.64 142.66-61.76-30.89-14.58 142.82-61.77-26.81-12.69 142.66-61.77-29-13.64 142.81-61.76h-.16l.16-.16-26.81-12.54 142.81-61.77-29.15-13.79 142.81-61.77-30.88-14.58 142.65-61.76-26.65-12.54 142.66-61.77-29-13.79 142.65-61.77-53.61-25.24-142.81 61.77 29.15 13.64-142.81 61.76 26.81 12.7-142.82 61.76 30.89 14.58-142.66 61.77 29 13.64-142.65 61.76 26.65 12.7-142.66 61.77h-.16l29.16 13.79-142.81 61.77 26.81 12.54-142.82 61.76 31.04 14.58-142.81 61.77 29 13.79-142.65 61.77 26.8 12.54-142.81 61.76 53.77 25.4 142.66-61.77-26.81-12.69zm1136.17-625.97l142.81-61.92-53.77-25.24-142.66 61.77 29 13.64-142.65 61.92 26.65 12.54-142.66 61.76 30.89 14.58-142.82 61.77 29.16 13.64-142.81 61.92 26.81 12.54-142.82 61.77h.16l-.16.15 29 13.64-142.65 61.77 26.65 12.69-142.66 61.77 30.89 14.58-142.82 61.76 29.16 13.64-142.81 61.77 26.81 12.7-142.66 61.76 53.61 25.24 142.82-61.76-26.81-12.55 142.65-61.76-29-13.8 142.82-61.76-30.89-14.58 142.66-61.77-26.81-12.54 142.81-61.76-29.15-13.8 142.81-61.76-26.65-12.7 142.65-61.77-29-13.63 142.66-61.77-30.88-14.58 142.81-61.76-26.81-12.7 142.81-61.77-29.15-13.64zM751.198 2041.71l142.656-61.76-29.002-13.8 142.658-61.76-30.885-14.58 142.815-61.77-26.81-12.54 142.81-61.76-29.15-13.8 142.81-61.76h-.16.16l-26.65-12.7 142.65-61.77-29-13.64 142.66-61.76-30.88-14.58 142.81-61.77-26.81-12.69 142.81-61.77-29.15-13.64 142.81-61.76-53.77-25.4-142.66 61.77 29 13.63-142.65 61.93 26.65 12.54-142.66 61.76 30.88 14.58-142.81 61.77 29.16 13.64-142.81 61.92 26.8 12.54-142.81 61.76h.16l-.16.16 29 13.64-142.65 61.77 26.65 12.69-142.658 61.77 30.883 14.58-142.813 61.76 29.158 13.64-142.812 61.77 26.806 12.69-142.812 61.77 53.77 25.24 142.656-61.77-26.65-12.54zm-554.461-261.48l142.656-61.77-29.002-13.79 142.656-61.77-30.883-14.58 142.813-61.76-26.807-12.54 142.813-61.77-29.158-13.8 142.812-61.76h-.157.157l-26.807-12.7 142.813-61.76-29.001-13.64 142.658-61.77-30.885-14.58 142.815-61.76-26.81-12.7 142.66-61.77-29.01-13.63 142.82-61.77-53.77-25.39-142.66 61.76 29 13.64-142.81 61.92 26.81 12.54-142.659 61.77 30.883 14.58-142.813 61.76 29.002 13.64-142.656 61.92 26.807 12.54-142.813 61.77v.16l29.002 13.63-142.813 61.77 26.807 12.7-142.656 61.76 30.883 14.58-142.813 61.77 29.158 13.64-142.812 61.76 26.806 12.7-142.812 61.76 53.77 25.24 142.656-61.76-26.65-12.54zm110.019 51.88l142.813-61.76-29.159-13.64 142.813-61.92-30.883-14.43 142.656-61.92-26.807-12.54 142.813-61.76-29.002-13.8 142.656-61.76h.157l-26.807-12.7 142.654-61.77-29-13.64 142.81-61.76-30.88-14.58 142.66-61.77-26.81-12.69 142.81-61.77-29-13.64 142.66-61.76-53.62-25.4-142.81 61.77 29 13.79-142.65 61.77 26.8 12.54-142.81 61.76 30.88 14.58-142.653 61.77 29.002 13.79-142.813 61.77 26.807 12.54-142.656 61.77v.15h-.157l29.002 13.64-142.656 61.77 26.807 12.69-142.813 61.77 30.883 14.58-142.656 61.76 29.001 13.64-142.812 61.77 26.806 12.69-142.655 61.77 53.613 25.4 142.813-61.77-26.807-12.7zm112.25 52.99l142.813-61.76-29.159-13.8 142.813-61.76-30.883-14.58 142.656-61.77-26.65-12.54 142.656-61.76-29.002-13.8 142.66-61.77h.15l-26.804-12.69 142.814-61.77-29.16-13.64 142.81-61.92-30.88-14.42 142.66-61.77-26.81-12.69 142.81-61.77-29-13.64 142.66-61.92-53.62-25.24-142.81 61.77 29 13.63-142.65 61.77 26.8 12.7-142.81 61.76 30.88 14.58-142.65 61.77 29 13.64-142.814 61.76 26.807 12.7-142.656 61.76-.157.16 29.158 13.64-142.812 61.76 26.807 12.7-142.813 61.77 30.883 14.58-142.656 61.76 29.001 13.64-142.655 61.77 26.649 12.69-142.655 61.77L303 1959.41l142.813-61.77-26.807-12.54zm110.031 51.89l142.813-61.77-29.158-13.79 142.812-61.77-30.882-14.58 142.655-61.76-26.65-12.54 142.653-61.77-28.998-13.79 142.658-61.77h.15l-26.8-12.7 142.81-61.76-29.16-13.64 142.81-61.77-30.88-14.58 142.66-61.76-26.81-12.7 142.81-61.76-29-13.64 142.66-61.77-53.62-25.39-142.81 61.76 29.16 13.64-142.81 61.92 26.8 12.54-142.81 61.77 30.88 14.58-142.65 61.76 29 13.64-142.66 61.92 26.65 12.54-142.652 61.77-.157.16 29.159 13.64-142.813 61.76 26.807 12.7-142.813 61.76 30.883 14.58-142.656 61.77 29.002 13.64-142.656 61.76 26.65 12.7-142.656 61.77 53.613 25.23 142.813-61.76-26.807-12.54zm109.993 51.74l142.656-61.77-29.002-13.64 142.656-61.76-30.883-14.58 142.813-61.77-26.807-12.7 142.817-61.76-29.16-13.64 142.81-61.92h-.16.16l-26.65-12.7 142.66-61.76-29.01-13.64 142.66-61.77-30.88-14.58 142.81-61.76-26.81-12.7 142.82-61.77-29.16-13.63 142.81-61.77-53.77-25.4-142.66 61.77 29.01 13.8-142.82 61.76 26.81 12.54-142.66 61.77 30.89 14.58-142.82 61.76 29.16 13.8-142.81 61.76 26.81 12.54-142.82 61.77.16.16h-.16l29.01 13.63-142.66 61.93 26.65 12.54-142.656 61.76 30.883 14.58-142.813 61.77 29.158 13.64-142.812 61.92 26.807 12.54-142.813 61.76 53.77 25.4 142.656-61.77-26.65-12.69zM-27.9 1674.25l142.812-61.77-29.001-13.63 142.656-61.77-30.883-14.58 142.813-61.76-26.807-12.7 142.656-61.77-29.002-13.64 142.813-61.76H570l.157-.16-26.807-12.54 142.812-61.76-29.158-13.8 142.813-61.76-30.883-14.58 142.656-61.77-26.65-12.54 142.66-61.76-29.006-13.8 142.656-61.765-53.61-25.239-142.816 61.765 29.158 13.638-142.812 61.761 26.806 12.7-142.812 61.77 30.883 14.58-142.656 61.76 29.001 13.64-142.656 61.77 26.65 12.69-142.655 61.77h-.157l29.158 13.79-142.812 61.77 26.806 12.54-142.812 61.77 30.882 14.58-142.655 61.76 29.001 13.8-142.656 61.76 26.807 12.54-142.813 61.77 53.771 25.39 142.656-61.76-26.807-12.7zm112.195 52.99l142.813-61.77-29.002-13.64 142.656-61.76-30.883-14.58 142.813-61.77-26.807-12.69 142.656-61.77-29.002-13.64 142.813-61.92-26.807-12.7 142.813-61.76-29.002-13.64 142.656-61.77-30.883-14.58 142.811-61.76-26.805-12.7 142.655-61.76-29-13.64 143.37-61.981-53.86-25.384-143.28 61.965 29.16 13.8-142.815 61.76 26.807 12.54-142.813 61.77 30.883 14.58-142.656 61.76 29.002 13.8-142.656 61.76 26.806 12.54-142.812 61.77v.16l29.001 13.63-142.812 61.93 26.807 12.54-142.656 61.76 30.882 14.58-142.812 61.77 29.001 13.64L30.682 1702l26.806 12.54-142.812 61.76 53.77 25.4 142.656-61.76-26.807-12.7z"/></g><defs><clipPath id="clip0"><path fill="#fff" d="M0 0h1920v1825H0z"/></clipPath></defs></svg>