<svg width="1920" height="1825" viewBox="0 0 1920 1825" fill="none" xmlns="http://www.w3.org/2000/svg">
<g clip-path="url(#clip0)">
<g opacity="0.24">
<path d="M557.729 660.143L700.385 598.377L671.384 584.739L814.039 522.974L783.157 508.394L925.969 446.629L899.162 433.931L1041.98 372.166L1012.82 358.527L1155.63 296.762V296.605L1128.98 284.064L1271.64 222.299L1242.63 208.504L1385.29 146.739L1354.41 132.159L1497.22 70.3942L1470.41 57.853L1613.23 -3.9122L1584.07 -17.7076L1726.88 -79.4728L1673.11 -104.712L1530.45 -42.9466L1559.46 -29.3081L1416.8 32.4571L1443.45 45.1551L1300.79 106.92L1331.68 121.499L1188.86 183.265L1218.02 196.903L1075.21 258.669L1102.02 271.366L959.203 333.132H959.36H959.203L988.205 346.927L845.549 408.692L872.199 421.233L729.543 482.999L760.426 497.578L617.613 559.343L646.771 573.138L503.959 634.904L530.766 647.445L387.953 709.21L441.723 734.606L584.536 672.841L557.729 660.143Z" fill="#323232"/>
<path d="M667.776 712.185L810.588 650.42L781.43 636.624L924.242 574.859L893.36 560.28L1036.02 498.515L1009.37 485.974L1152.02 424.208L1123.02 410.413L1265.68 348.648H1265.83L1239.03 335.95L1381.84 274.185L1352.68 260.546L1495.49 198.624L1464.61 184.202L1607.27 122.437L1580.62 109.739L1723.27 47.9734L1694.27 34.1782L1836.93 -27.5871L1783.31 -52.8262L1640.5 8.93902L1669.66 22.5776L1526.85 84.3428L1553.65 97.0407L1410.84 158.806L1441.72 173.385L1299.07 235.15L1328.07 248.789L1185.41 310.554L1212.06 323.252L1069.41 385.017L1069.25 385.174L1098.41 398.813L955.595 460.578L982.402 473.276L839.59 535.041L870.472 549.62L727.816 611.385L756.818 625.024L614.162 686.789L640.812 699.487L498.156 761.252L551.77 786.491L694.582 724.726L667.776 712.185Z" fill="#323232"/>
<path d="M780.006 765.019L922.819 703.253L893.66 689.615L1036.47 627.85L1005.59 613.27L1148.4 551.505L1121.6 538.807L1264.25 477.042L1235.25 463.403L1377.91 401.638L1378.06 401.481L1351.26 388.94L1494.07 327.175L1464.91 313.38L1607.72 251.615L1576.84 237.035L1719.5 175.27L1692.85 162.729L1835.5 100.964L1806.5 87.1684L1949.16 25.4031L1895.54 0.164062L1752.73 61.9294L1781.89 75.5678L1639.08 137.333L1665.88 150.031L1523.07 211.796L1553.95 226.375L1411.3 288.141L1440.3 301.779L1297.64 363.544L1324.29 376.242L1181.64 438.008H1181.48L1210.64 451.803L1067.83 513.568L1094.63 526.109L951.82 587.875L982.703 602.454L840.047 664.219L869.048 678.014L726.393 739.78L753.199 752.321L610.387 814.086L664.157 839.482L806.813 777.716L780.006 765.019Z" fill="#323232"/>
<path d="M890.119 816.904L1032.93 755.139L1003.93 741.501L1146.59 679.735L1115.7 665.156L1258.52 603.391L1231.71 590.693L1374.37 528.928L1345.36 515.289L1488.18 453.524H1488.02L1488.18 453.367L1461.37 440.826L1604.18 379.061L1575.02 365.266L1717.84 303.5L1686.95 288.921L1829.61 227.156L1802.96 214.615L1945.62 152.85L1916.61 139.054L2059.27 77.289L2005.66 52.0498L1862.84 113.815L1892 127.454L1749.19 189.219L1776 201.917L1633.18 263.682L1664.07 278.261L1521.41 340.026L1550.41 353.665L1407.76 415.43L1434.41 428.128L1291.75 489.893H1291.59L1320.75 503.689L1177.94 565.454L1204.75 577.995L1061.93 639.76L1092.97 654.34L950.16 716.105L979.162 729.9L836.506 791.665L863.313 804.206L720.5 865.972L774.27 891.368L916.926 829.602L890.119 816.904Z" fill="#323232"/>
<path d="M2026.29 190.949L2169.1 129.027L2115.33 103.788L1972.67 165.553L2001.67 179.192L1859.02 241.114L1885.67 253.655L1743.01 315.42L1773.89 329.999L1631.08 391.765L1660.24 405.403L1517.43 467.325L1544.23 479.866L1401.42 541.632H1401.58L1401.42 541.788L1430.42 555.427L1287.77 617.192L1314.42 629.89L1171.76 691.655L1202.64 706.235L1059.83 768L1088.99 781.638L946.177 843.404L972.984 856.101L830.328 917.867L883.942 943.106L1026.75 881.341L999.947 868.799L1142.6 807.034L1113.6 793.239L1256.41 731.474L1225.53 716.894L1368.19 655.129L1341.38 642.588L1484.19 580.823L1455.03 567.027L1597.85 505.262L1571.2 492.564L1713.85 430.799L1684.85 417.161L1827.51 355.395L1796.62 340.816L1939.44 279.051L1912.63 266.353L2055.44 204.588L2026.29 190.949Z" fill="#323232"/>
<path d="M445.507 607.31L588.162 545.545L559.161 531.749L701.817 469.984L670.934 455.405L813.747 393.64L786.94 381.099L929.752 319.333L900.594 305.538L1043.41 243.773H1043.25H1043.41L1016.76 231.075L1159.41 169.31L1130.41 155.671L1273.07 93.906L1242.18 79.3269L1385 17.5616L1358.19 4.86372L1501 -56.9016L1471.84 -70.54L1614.66 -132.305L1560.89 -157.701L1418.23 -95.9359L1447.23 -82.2973L1304.58 -20.3753L1331.23 -7.83417L1188.57 53.931L1219.45 68.5101L1076.64 130.275L1105.8 143.914L962.986 205.836L989.793 218.377L846.981 280.142H847.138L846.981 280.299L875.982 293.938L733.326 355.703L759.976 368.401L617.321 430.166L648.203 444.745L505.391 506.51L534.549 520.149L391.736 581.914L418.543 594.612L275.73 656.377L329.501 681.616L472.157 619.851L445.507 607.31Z" fill="#323232"/>
<path d="M-108.954 345.828L33.7014 284.062L4.69995 270.267L147.356 208.502L116.473 193.923L259.286 132.158L232.479 119.616L375.291 57.8511L346.133 44.0558L488.946 -17.7095H488.789H488.946L462.139 -30.4074L604.952 -92.1727L575.95 -105.811L718.606 -167.576L687.723 -182.156L830.536 -243.921L803.729 -256.619L946.385 -318.384L917.383 -332.022L1060.2 -393.788L1006.43 -419.184L863.77 -357.418L892.771 -343.78L749.959 -281.858L776.766 -269.317L634.11 -207.551L664.992 -192.972L522.18 -131.207L551.181 -117.568L408.526 -55.6465L435.332 -43.1053L292.52 18.6599V18.8167L321.521 32.4552L178.709 94.2205L205.515 106.918L62.8596 168.684L93.7422 183.263L-49.0703 245.028L-19.9121 258.667L-162.725 320.432L-135.918 333.13L-278.73 394.895L-224.96 420.134L-82.3044 358.369L-108.954 345.828Z" fill="#323232"/>
<path d="M1.06462 397.717L143.877 335.952L114.719 322.313L257.531 260.391L226.649 245.969L369.305 184.047L342.498 171.506L485.31 109.741L456.309 95.9454L598.965 34.1802H599.122L572.315 21.4822L714.971 -40.283L685.969 -53.9215L828.782 -115.687L797.899 -130.266L940.555 -192.031L913.748 -204.729L1056.56 -266.494L1027.56 -280.133L1170.21 -341.898L1116.6 -367.294L973.789 -305.529L1002.79 -291.733L860.135 -229.968L886.941 -217.427L744.129 -155.662L775.011 -141.083L632.356 -79.3174L661.357 -65.5222L518.544 -3.75687L545.351 8.7843L402.695 70.5496V70.7063H402.539L431.54 84.3448L288.884 146.11L315.691 158.808L172.879 220.573L203.761 235.152L61.1054 296.918L90.1069 310.556L-52.7057 372.321L-25.8989 385.019L-168.555 446.785L-114.941 472.18L27.8713 410.415L1.06462 397.717Z" fill="#323232"/>
<path d="M113.35 450.703L256.162 388.937L227.004 375.142L369.817 313.377L338.934 298.798L481.59 237.032L454.94 224.491L597.596 162.726L568.594 148.931L711.25 87.1655H711.407L684.6 74.4676L827.412 12.7023L798.254 -0.936218L941.067 -62.8582L910.184 -77.2806L1052.84 -139.046L1026.03 -151.744L1168.85 -213.509L1139.84 -227.148L1282.5 -289.07L1228.89 -314.309L1086.07 -252.543L1115.08 -238.905L972.42 -177.14L999.227 -164.442L856.414 -102.676L887.297 -88.0973L744.641 -26.3321L773.642 -12.6935L630.83 49.0717L657.636 61.7696L514.981 123.535L514.824 123.692L543.982 137.33L401.17 199.095L427.976 211.793L285.164 273.559L316.046 288.138L173.391 349.903L202.392 363.542L59.7363 425.307L86.3862 438.005L-56.2695 499.77L-2.65607 525.009L140.156 463.244L113.35 450.703Z" fill="#323232"/>
<path d="M223.354 502.593L366.166 440.828L337.008 427.033L479.821 365.268L448.938 350.688L591.594 288.923L564.944 276.382L707.6 214.617L678.598 200.821L821.254 139.056H821.411L794.604 126.358L937.416 64.593L908.258 50.9545L1051.07 -10.8108L1020.19 -25.3899L1162.84 -87.1552L1136.04 -99.8531L1278.85 -161.618L1249.85 -175.257L1392.5 -237.022L1338.89 -262.418L1196.08 -200.653L1225.24 -187.014L1082.42 -125.092L1109.23 -112.551L966.418 -50.7858L997.3 -36.2067L854.645 25.5586L883.646 39.1972L740.99 101.119L767.64 113.66L624.985 175.426L624.828 175.582L653.986 189.221L511.173 250.986L537.98 263.684L395.168 325.449L426.05 340.028L283.395 401.794L312.396 415.432L169.74 477.197L196.39 489.895L53.7344 551.661L107.348 576.9L250.16 515.134L223.354 502.593Z" fill="#323232"/>
<path d="M333.225 554.328L475.881 492.562L446.88 478.924L589.535 417.159L558.653 402.58L701.465 340.814L674.659 328.116L817.471 266.351L788.313 252.712L931.125 190.79H930.969H931.125L904.475 178.093L1047.13 116.327L1018.13 102.689L1160.79 40.9236L1129.9 26.3445L1272.72 -35.4208L1245.91 -48.1187L1388.72 -109.884L1359.56 -123.523L1502.38 -185.288L1448.61 -210.684L1305.95 -148.918L1334.95 -135.123L1192.14 -73.3578L1218.95 -60.8167L1076.29 0.948608L1107.17 15.5277L964.36 77.293L993.518 91.0883L850.705 152.854L877.512 165.395L734.699 227.16L734.856 227.317H734.699L763.701 240.955L621.045 302.877L647.695 315.418L505.039 377.184L535.922 391.763L393.109 453.528L422.268 467.167L279.455 529.089L306.262 541.63L163.449 603.395L217.22 628.791L359.875 567.026L333.225 554.328Z" fill="#323232"/>
<path d="M-333.592 239.855L-190.779 178.089L-219.781 164.451L-77.1248 102.685L-108.007 88.1063L34.8052 26.3411L7.99841 13.6431L150.654 -48.1221L121.653 -61.7606L264.465 -123.526H264.309L264.465 -123.683L237.659 -136.224L380.471 -197.989L351.313 -211.784L494.125 -273.55L463.243 -288.129L605.899 -349.894L579.249 -362.435L721.904 -424.2L692.903 -437.996L835.559 -499.761L781.945 -525L639.133 -463.235L668.291 -449.596L525.478 -387.831L552.285 -375.133L409.473 -313.368L440.355 -298.789L297.699 -237.023L326.701 -223.385L184.045 -161.62L210.695 -148.922L68.0392 -87.1565H67.8824L97.0406 -73.3612L-45.7719 -11.5959L-18.9651 0.945251L-161.778 62.7105L-130.895 77.2896L-273.551 139.055L-244.549 152.85L-387.205 214.615L-360.398 227.157L-503.211 288.922L-449.441 314.318L-306.785 252.552L-333.592 239.855Z" fill="#323232"/>
<path d="M-221.361 292.842L-78.5486 231.077L-107.55 217.438L35.1057 155.673L4.22308 141.094L147.036 79.3289L120.229 66.631L262.885 4.86569L233.883 -8.77286L376.696 -70.6949H376.539H376.696L349.889 -83.3928L492.702 -145.158L463.7 -158.797L606.356 -220.562L575.473 -235.141L718.286 -296.906L691.479 -309.604L834.135 -371.369L805.133 -385.008L947.946 -446.773L894.176 -472.169L751.363 -410.404L780.521 -396.608L637.709 -334.843L664.516 -322.302L521.703 -260.537L552.586 -245.958L409.93 -184.192L438.931 -170.397L296.276 -108.632L323.082 -96.0908L180.27 -34.3255V-34.1687L209.271 -20.5302L66.4586 41.3918L93.2654 53.933L-49.3904 115.698L-18.5078 130.277L-161.32 192.043L-132.319 205.681L-274.975 267.603L-248.168 280.144L-390.98 341.91L-337.21 367.305L-194.554 305.54L-221.361 292.842Z" fill="#323232"/>
<path d="M-585.029 1412.61L-442.373 1350.85L-471.374 1337.21L-328.719 1275.44L-359.601 1260.86L-216.789 1199.1L-243.595 1186.4L-100.783 1124.64L-129.941 1111L12.8715 1049.23V1049.07L-13.7785 1036.53L128.877 974.768L99.8759 960.973L242.532 899.208L211.649 884.629L354.462 822.863L327.655 810.322L470.467 748.557L441.309 734.762L584.122 672.996L530.352 647.757L387.696 709.523L416.697 723.161L274.042 784.926L300.691 797.624L158.036 859.39L188.918 873.969L46.1057 935.734L75.2639 949.372L-67.5486 1011.14L-40.7419 1023.84L-183.554 1085.6H-183.398H-183.554L-154.553 1099.4L-297.209 1161.16L-270.559 1173.7L-413.215 1235.47L-382.332 1250.05L-525.145 1311.81L-495.986 1325.61L-638.799 1387.37L-611.992 1399.91L-754.805 1461.68L-701.034 1487.08L-558.222 1425.31L-585.029 1412.61Z" fill="#323232"/>
<path d="M-474.955 1464.65L-332.142 1402.89L-361.301 1389.09L-218.488 1327.33L-249.371 1312.75L-106.715 1250.98L-133.365 1238.44L9.29095 1176.68L-19.7105 1162.88L122.945 1101.12H123.102L96.2953 1088.42L239.108 1026.65L209.95 1013.02L352.762 951.094L321.88 936.672L464.535 874.906L437.885 862.208L580.541 800.443L551.54 786.648L694.195 724.883L640.582 699.644L497.769 761.409L526.927 775.047L384.115 836.813L410.922 849.51L268.109 911.276L298.992 925.855L156.336 987.62L185.337 1001.26L42.6817 1063.02L69.3317 1075.72L-73.324 1137.49L-73.4808 1137.64L-44.3226 1151.28L-187.135 1213.05L-160.328 1225.75L-303.141 1287.51L-272.258 1302.09L-414.914 1363.86L-385.913 1377.49L-528.568 1439.26L-501.918 1451.96L-644.574 1513.72L-590.961 1538.96L-448.148 1477.2L-474.955 1464.65Z" fill="#323232"/>
<path d="M-362.728 1517.49L-219.916 1455.72L-249.074 1442.08L-106.262 1380.32L-137.144 1365.74L5.66833 1303.97L-21.1384 1291.28L121.517 1229.51L92.516 1215.87L235.172 1154.11L235.328 1153.95L208.522 1141.41L351.334 1079.64L322.176 1065.85L464.989 1004.08L434.106 989.504L576.762 927.739L550.112 915.198L692.768 853.432L663.766 839.637L806.422 777.872L752.808 752.633L609.996 814.398L639.154 828.037L496.342 889.802L523.148 902.5L380.336 964.265L411.218 978.844L268.563 1040.61L297.564 1054.25L154.908 1116.01L181.558 1128.71L38.9025 1190.48H38.7456L67.904 1204.27L-74.9086 1266.04L-48.1019 1278.58L-190.914 1340.34L-160.032 1354.92L-302.688 1416.69L-273.686 1430.48L-416.342 1492.25L-389.535 1504.79L-532.348 1566.55L-478.577 1591.95L-335.922 1530.19L-362.728 1517.49Z" fill="#323232"/>
<path d="M-252.666 1569.37L-109.853 1507.61L-138.855 1493.97L3.80109 1432.2L-27.0817 1417.62L115.731 1355.86L88.9241 1343.16L231.58 1281.4L202.578 1267.76L345.391 1205.99H345.234L345.391 1205.84L318.584 1193.29L461.397 1131.53L432.239 1117.73L575.051 1055.97L544.169 1041.39L686.824 979.625L660.174 967.083L802.83 905.318L773.829 891.523L916.484 829.758L862.871 804.519L720.058 866.284L749.217 879.922L606.404 941.688L633.211 954.386L490.398 1016.15L521.281 1030.73L378.625 1092.5L407.627 1106.13L264.971 1167.9L291.621 1180.6L148.965 1242.36H148.808L177.966 1256.16L35.154 1317.92L61.9607 1330.46L-80.8518 1392.23L-49.8124 1406.81L-192.625 1468.57L-163.624 1482.37L-306.279 1544.13L-279.473 1556.68L-422.285 1618.44L-368.515 1643.84L-225.859 1582.07L-252.666 1569.37Z" fill="#323232"/>
<path d="M883.559 943.418L1026.37 881.496L972.601 856.257L829.945 918.022L858.947 931.661L716.291 993.583L742.941 1006.12L600.285 1067.89L631.168 1082.47L488.355 1144.23L517.513 1157.87L374.701 1219.79L401.507 1232.34L258.695 1294.1H258.852L258.695 1294.26L287.696 1307.9L145.041 1369.66L171.691 1382.36L29.0348 1444.12L59.9174 1458.7L-82.8951 1520.47L-53.7369 1534.11L-196.549 1595.87L-169.743 1608.57L-312.398 1670.34L-258.785 1695.57L-115.972 1633.81L-142.779 1621.27L-0.123352 1559.5L-29.1248 1545.71L113.688 1483.94L82.8051 1469.36L225.461 1407.6L198.654 1395.06L341.467 1333.29L312.308 1319.5L455.121 1257.73L428.471 1245.03L571.127 1183.27L542.125 1169.63L684.781 1107.86L653.898 1093.28L796.711 1031.52L769.904 1018.82L912.717 957.057L883.559 943.418Z" fill="#323232"/>
<path d="M-697.259 1359.78L-554.603 1298.01L-583.605 1284.22L-440.949 1222.45L-471.832 1207.87L-329.019 1146.11L-355.826 1133.57L-213.013 1071.8L-242.171 1058.01L-99.3589 996.242H-99.5156H-99.3589L-126.009 983.544L16.6469 921.779L-12.3546 908.14L130.301 846.375L99.4186 831.796L242.231 770.03L215.424 757.332L358.237 695.567L329.079 681.929L471.891 620.163L418.121 594.768L275.465 656.533L304.467 670.171L161.811 732.093L188.461 744.635L45.805 806.4L76.6877 820.979L-66.1248 882.744L-36.9666 896.383L-179.779 958.305L-152.972 970.846L-295.785 1032.61H-295.628L-295.785 1032.77L-266.784 1046.41L-409.439 1108.17L-382.789 1120.87L-525.445 1182.63L-494.562 1197.21L-637.375 1258.98L-608.217 1272.62L-751.029 1334.38L-724.223 1347.08L-867.035 1408.85L-813.265 1434.09L-670.609 1372.32L-697.259 1359.78Z" fill="#323232"/>
<path d="M-1141.67 1150.19L-998.857 1088.42L-1028.02 1074.78L-885.203 1012.86L-916.086 998.439L-773.43 936.517L-800.237 923.976L-657.424 862.21L-686.425 848.415L-543.77 786.65H-543.613L-570.42 773.952L-427.764 712.187L-456.765 698.548L-313.953 636.783L-344.835 622.204L-202.18 560.439L-228.986 547.741L-86.1738 485.975L-115.175 472.337L27.4806 410.572L-26.1328 385.176L-168.945 446.941L-139.944 460.736L-282.6 522.502L-255.793 535.043L-398.606 596.808L-367.723 611.387L-510.379 673.152L-481.377 686.948L-624.19 748.713L-597.383 761.254L-740.039 823.019V823.176H-740.196L-711.194 836.815L-853.85 898.58L-827.043 911.278L-969.856 973.043L-938.973 987.622L-1081.63 1049.39L-1052.63 1063.03L-1195.44 1124.79L-1168.63 1137.49L-1311.29 1199.25L-1257.68 1224.65L-1114.86 1162.88L-1141.67 1150.19Z" fill="#323232"/>
<path d="M-1029.47 1203.17L-886.658 1141.4L-915.816 1127.61L-773.004 1065.84L-803.886 1051.26L-661.231 989.499L-687.88 976.958L-545.225 915.193L-574.226 901.398L-431.57 839.632H-431.414L-458.22 826.934L-315.408 765.169L-344.566 751.531L-201.754 689.609L-232.636 675.186L-89.9803 613.421L-116.787 600.723L26.0254 538.958L-2.97607 525.319L139.68 463.397L86.0664 438.158L-56.7463 499.923L-27.7448 513.562L-170.401 575.327L-143.594 588.025L-286.406 649.79L-255.524 664.37L-398.18 726.135L-369.178 739.773L-511.991 801.539L-485.184 814.236L-627.84 876.002L-627.996 876.158L-598.838 889.797L-741.651 951.562L-714.844 964.26L-857.657 1026.03L-826.774 1040.6L-969.43 1102.37L-940.428 1116.01L-1083.08 1177.77L-1056.43 1190.47L-1199.09 1252.24L-1145.48 1277.48L-1002.66 1215.71L-1029.47 1203.17Z" fill="#323232"/>
<path d="M-919.412 1255.06L-776.599 1193.3L-805.758 1179.5L-662.945 1117.74L-693.828 1103.16L-551.172 1041.39L-577.822 1028.85L-435.166 967.085L-464.168 953.29L-321.512 891.525H-321.355L-348.162 878.827L-205.349 817.062L-234.507 803.423L-91.6949 741.658L-122.578 727.079L20.0784 665.314L-6.72852 652.616L136.084 590.85L107.083 577.212L249.738 515.447L196.125 490.051L53.3124 551.816L82.4705 565.455L-60.342 627.377L-33.5353 639.918L-176.348 701.683L-145.465 716.262L-288.121 778.027L-259.119 791.666L-401.775 853.588L-375.125 866.129L-517.781 927.894L-517.938 928.051L-488.78 941.69L-631.592 1003.45L-604.785 1016.15L-747.598 1077.92L-716.715 1092.5L-859.371 1154.26L-830.37 1167.9L-973.025 1229.67L-946.375 1242.36L-1089.03 1304.13L-1035.42 1329.37L-892.605 1267.6L-919.412 1255.06Z" fill="#323232"/>
<path d="M-809.509 1306.79L-666.853 1245.03L-695.855 1231.39L-553.199 1169.62L-584.082 1155.05L-441.269 1093.28L-468.076 1080.58L-325.263 1018.82L-354.421 1005.18L-211.609 943.256H-211.766H-211.609L-238.259 930.558L-95.6031 868.793L-124.605 855.155L18.0512 793.389L-12.8314 778.81L129.981 717.045L103.174 704.347L245.987 642.582L216.829 628.943L359.641 567.178L305.871 541.782L163.215 603.548L192.217 617.343L49.4041 679.108L76.2108 691.649L-66.4449 753.414L-35.5622 767.994L-178.375 829.759L-149.217 843.554L-292.029 905.319L-265.222 917.861L-408.035 979.626L-407.878 979.783H-408.035L-379.034 993.421L-521.689 1055.34L-495.039 1067.88L-637.695 1129.65L-606.812 1144.23L-749.625 1205.99L-720.467 1219.63L-863.279 1281.55L-836.473 1294.1L-979.285 1355.86L-925.515 1381.26L-782.859 1319.49L-809.509 1306.79Z" fill="#323232"/>
<path d="M2006.38 1342.07L2149.04 1280.3L2120.04 1266.66L2262.69 1204.9L2231.81 1190.32L2374.62 1128.55L2347.81 1115.86L2490.63 1054.09L2461.47 1040.45L2604.28 978.687V978.53L2577.63 965.989L2720.29 904.224L2691.29 890.429L2833.94 828.663L2803.06 814.084L2945.87 752.319L2919.07 739.778L3061.88 678.013L3032.72 664.217L3175.53 602.452L3121.76 577.213L2979.11 638.978L3008.11 652.617L2865.45 714.382L2892.1 727.08L2749.45 788.845L2780.33 803.424L2637.52 865.189L2666.67 878.828L2523.86 940.593L2550.67 953.291L2407.86 1015.06H2408.01H2407.86L2436.86 1028.85L2294.2 1090.62L2320.85 1103.16L2178.2 1164.92L2209.08 1179.5L2066.27 1241.27L2095.42 1255.06L1952.61 1316.83L1979.42 1329.37L1836.61 1391.13L1890.38 1416.53L2033.19 1354.77L2006.38 1342.07Z" fill="#323232"/>
<path d="M1894.04 1289.24L2036.69 1227.48L2007.69 1213.68L2150.35 1151.92L2119.47 1137.34L2262.28 1075.57L2235.47 1063.03L2378.28 1001.27L2349.13 987.471L2491.94 925.706H2491.78H2491.94L2465.29 913.008L2607.94 851.242L2578.94 837.604L2721.6 775.839L2690.72 761.26L2833.53 699.494L2806.72 686.796L2949.53 625.031L2920.38 611.393L3063.19 549.627L3009.42 524.231L2866.76 585.997L2895.76 599.635L2753.11 661.557L2779.76 674.098L2637.1 735.864L2667.98 750.443L2525.17 812.208L2554.33 825.847L2411.52 887.769L2438.32 900.31L2295.51 962.075H2295.67L2295.51 962.232L2324.51 975.87L2181.86 1037.64L2208.51 1050.33L2065.85 1112.1L2096.73 1126.68L1953.92 1188.44L1983.08 1202.08L1840.27 1263.85L1867.07 1276.54L1724.26 1338.31L1778.03 1363.55L1920.69 1301.78L1894.04 1289.24Z" fill="#323232"/>
<path d="M1339.58 1027.76L1482.23 965.995L1453.23 952.2L1595.89 890.435L1565 875.855L1707.82 814.09L1681.01 801.549L1823.82 739.784L1794.66 725.988L1937.48 664.223H1937.32H1937.48L1910.67 651.525L2053.48 589.76L2024.48 576.121L2167.14 514.356L2136.25 499.777L2279.07 438.012L2252.26 425.314L2394.92 363.549L2365.91 349.91L2508.73 288.145L2454.96 262.749L2312.3 324.514L2341.3 338.153L2198.49 400.075L2225.3 412.616L2082.64 474.381L2113.52 488.96L1970.71 550.726L1999.71 564.364L1857.06 626.286L1883.86 638.827L1741.05 700.593V700.749L1770.05 714.388L1627.24 776.153L1654.05 788.851L1511.39 850.616L1542.27 865.195L1399.46 926.961L1428.62 940.599L1285.81 1002.36L1312.61 1015.06L1169.8 1076.83L1223.57 1102.07L1366.23 1040.3L1339.58 1027.76Z" fill="#323232"/>
<path d="M1449.66 1079.64L1592.47 1017.88L1563.31 1004.24L1706.13 942.316L1675.24 927.894L1817.9 865.972L1791.09 853.431L1933.9 791.666L1904.9 777.87L2047.56 716.105H2047.72L2020.91 703.407L2163.56 641.642L2134.56 628.003L2277.38 566.238L2246.49 551.659L2389.15 489.894L2362.34 477.196L2505.15 415.431L2476.15 401.792L2618.81 340.027L2565.2 314.631L2422.38 376.396L2451.38 390.191L2308.73 451.957L2335.54 464.498L2192.72 526.263L2223.61 540.842L2080.95 602.607L2109.95 616.403L1967.14 678.168L1993.95 690.709L1851.29 752.474V752.631H1851.13L1880.13 766.27L1737.48 828.035L1764.28 840.733L1621.47 902.498L1652.35 917.077L1509.7 978.842L1538.7 992.481L1395.89 1054.25L1422.69 1066.94L1280.04 1128.71L1333.65 1154.11L1476.47 1092.34L1449.66 1079.64Z" fill="#323232"/>
<path d="M1561.88 1132.64L1704.7 1070.87L1675.54 1057.08L1818.35 995.31L1787.47 980.731L1930.12 918.966L1903.47 906.425L2046.13 844.66L2017.13 830.864L2159.79 769.099H2159.94L2133.14 756.401L2275.95 694.636L2246.79 680.997L2389.6 619.075L2358.72 604.653L2501.38 542.888L2474.57 530.19L2617.38 468.425L2588.38 454.786L2731.04 392.864L2677.42 367.625L2534.61 429.39L2563.61 443.029L2420.95 504.794L2447.76 517.492L2304.95 579.257L2335.83 593.836L2193.18 655.602L2222.18 669.24L2079.36 731.005L2106.17 743.703L1963.52 805.469L1963.36 805.625L1992.52 819.264L1849.7 881.029L1876.51 893.727L1733.7 955.492L1764.58 970.071L1621.93 1031.84L1650.93 1045.48L1508.27 1107.24L1534.92 1119.94L1392.27 1181.7L1445.88 1206.94L1588.69 1145.18L1561.88 1132.64Z" fill="#323232"/>
<path d="M1672 1184.52L1814.81 1122.75L1785.66 1108.96L1928.47 1047.19L1897.59 1032.61L2040.24 970.849L2013.59 958.308L2156.25 896.542L2127.25 882.747L2269.9 820.982H2270.06L2243.25 808.284L2386.06 746.519L2356.91 732.88L2499.72 671.115L2468.84 656.536L2611.49 594.771L2584.69 582.073L2727.5 520.307L2698.5 506.669L2841.15 444.904L2787.54 419.508L2644.73 481.273L2673.88 494.912L2531.07 556.834L2557.88 569.375L2415.07 631.14L2445.95 645.719L2303.29 707.484L2332.29 721.123L2189.64 783.045L2216.29 795.586L2073.63 857.351L2073.48 857.508L2102.63 871.147L1959.82 932.912L1986.63 945.61L1843.82 1007.38L1874.7 1021.95L1732.04 1083.72L1761.04 1097.36L1618.39 1159.12L1645.04 1171.82L1502.38 1233.59L1556 1258.83L1698.81 1197.06L1672 1184.52Z" fill="#323232"/>
<path d="M1781.87 1236.25L1924.53 1174.49L1895.52 1160.85L2038.18 1099.08L2007.3 1084.51L2150.11 1022.74L2123.3 1010.04L2266.12 948.277L2236.96 934.638L2379.77 872.716H2379.61H2379.77L2353.12 860.018L2495.78 798.253L2466.77 784.615L2609.43 722.849L2578.55 708.27L2721.36 646.505L2694.55 633.807L2837.37 572.042L2808.21 558.403L2951.02 496.638L2897.25 471.242L2754.59 533.007L2783.6 546.803L2640.78 608.568L2667.59 621.109L2524.93 682.874L2555.82 697.453L2413 759.219L2442.16 773.014L2299.35 834.779L2326.16 847.32L2183.34 909.086L2183.5 909.242H2183.34L2212.35 922.881L2069.69 984.803L2096.34 997.344L1953.68 1059.11L1984.57 1073.69L1841.75 1135.45L1870.91 1149.09L1728.1 1211.01L1754.91 1223.56L1612.09 1285.32L1665.86 1310.72L1808.52 1248.95L1781.87 1236.25Z" fill="#323232"/>
<path d="M1114.95 921.779L1257.76 860.014L1228.76 846.375L1371.41 784.61L1340.53 770.031L1483.34 708.266L1456.54 695.568L1599.19 633.803L1570.19 620.164L1713 558.399H1712.85L1713 558.242L1686.2 545.701L1829.01 483.936L1799.85 470.14L1942.66 408.375L1911.78 393.796L2054.44 332.031L2027.79 319.49L2170.44 257.724L2141.44 243.929L2284.1 182.164L2230.48 156.925L2087.67 218.69L2116.83 232.329L1974.02 294.094L2000.82 306.792L1858.01 368.557L1888.89 383.136L1746.24 444.901L1775.24 458.54L1632.58 520.305L1659.23 533.003L1516.58 594.768H1516.42L1545.58 608.564L1402.77 670.329L1429.57 682.87L1286.76 744.635L1317.64 759.214L1174.99 820.98L1203.99 834.775L1061.33 896.54L1088.14 909.081L945.328 970.847L999.098 996.243L1141.75 934.477L1114.95 921.779Z" fill="#323232"/>
<path d="M1227.23 974.767L1370.04 913.002L1341.04 899.363L1483.7 837.598L1452.81 823.019L1595.63 761.254L1568.82 748.556L1711.47 686.79L1682.47 673.152L1825.29 611.23H1825.13H1825.29L1798.48 598.532L1941.29 536.767L1912.29 523.128L2054.95 461.363L2024.06 446.784L2166.88 385.019L2140.07 372.321L2282.72 310.555L2253.72 296.917L2396.54 235.152L2342.77 209.756L2199.95 271.521L2229.11 285.316L2086.3 347.082L2113.11 359.623L1970.29 421.388L2001.18 435.967L1858.52 497.732L1887.52 511.528L1744.87 573.293L1771.67 585.834L1628.86 647.599V647.756L1657.86 661.395L1515.05 723.317L1541.86 735.858L1399.2 797.623L1430.08 812.202L1287.27 873.967L1316.27 887.606L1173.62 949.528L1200.42 962.069L1057.61 1023.83L1111.38 1049.23L1254.04 987.465L1227.23 974.767Z" fill="#323232"/>
<path d="M863.389 2094.54L1006.05 2032.77L977.044 2019.13L1119.7 1957.37L1088.82 1942.79L1231.63 1881.02L1204.82 1868.33L1347.64 1806.56L1318.48 1792.92L1461.29 1731.16V1731L1434.64 1718.46L1577.3 1656.69L1548.29 1642.9L1690.95 1581.13L1660.07 1566.55L1802.88 1504.79L1776.07 1492.25L1918.89 1430.48L1889.73 1416.69L2032.54 1354.92L1978.77 1329.68L1836.11 1391.45L1865.12 1405.09L1722.46 1466.85L1749.11 1479.55L1606.45 1541.31L1637.34 1555.89L1494.52 1617.66L1523.68 1631.3L1380.87 1693.06L1407.68 1705.76L1264.86 1767.53H1265.02H1264.86L1293.86 1781.32L1151.21 1843.09L1177.86 1855.63L1035.2 1917.39L1066.09 1931.97L923.273 1993.74L952.432 2007.53L809.619 2069.3L836.426 2081.84L693.613 2143.6L747.384 2169L890.196 2107.24L863.389 2094.54Z" fill="#323232"/>
<path d="M973.467 2146.59L1116.28 2084.82L1087.12 2071.03L1229.93 2009.26L1199.05 1994.68L1341.71 1932.92L1315.06 1920.38L1457.71 1858.61L1428.71 1844.82L1571.37 1783.05H1571.52L1544.72 1770.35L1687.53 1708.59L1658.37 1694.95L1801.18 1633.03L1770.3 1618.6L1912.96 1556.84L1886.31 1544.14L2028.96 1482.38L1999.96 1468.58L2142.62 1406.82L2089 1381.58L1946.19 1443.34L1975.35 1456.98L1832.54 1518.75L1859.34 1531.44L1716.53 1593.21L1747.41 1607.79L1604.76 1669.55L1633.76 1683.19L1491.1 1744.96L1517.75 1757.65L1375.1 1819.42L1374.94 1819.58L1404.1 1833.21L1261.29 1894.98L1288.09 1907.68L1145.28 1969.44L1176.16 1984.02L1033.51 2045.79L1062.51 2059.43L919.853 2121.19L946.503 2133.89L803.848 2195.65L857.461 2220.89L1000.27 2159.13L973.467 2146.59Z" fill="#323232"/>
<path d="M1085.81 2199.41L1228.62 2137.65L1199.46 2124.01L1342.27 2062.24L1311.39 2047.66L1454.2 1985.9L1427.4 1973.2L1570.05 1911.44L1541.05 1897.8L1683.71 1836.03L1683.86 1835.88L1657.06 1823.33L1799.87 1761.57L1770.71 1747.77L1913.52 1686.01L1882.64 1671.43L2025.3 1609.66L1998.65 1597.12L2141.3 1535.36L2112.3 1521.56L2254.96 1459.8L2201.34 1434.56L2058.53 1496.32L2087.69 1509.96L1944.88 1571.73L1971.68 1584.43L1828.87 1646.19L1859.75 1660.77L1717.1 1722.54L1746.1 1736.17L1603.44 1797.94L1630.09 1810.64L1487.44 1872.4H1487.28L1516.44 1886.2L1373.63 1947.96L1400.43 1960.5L1257.62 2022.27L1288.5 2036.85L1145.85 2098.61L1174.85 2112.41L1032.19 2174.17L1059 2186.72L916.188 2248.48L969.958 2273.88L1112.61 2212.11L1085.81 2199.41Z" fill="#323232"/>
<path d="M1195.81 2251.31L1338.62 2189.54L1309.62 2175.9L1452.28 2114.14L1421.39 2099.56L1564.21 2037.79L1537.4 2025.1L1680.06 1963.33L1651.06 1949.69L1793.87 1887.93H1793.71L1793.87 1887.77L1767.06 1875.23L1909.87 1813.46L1880.72 1799.67L2023.53 1737.9L1992.65 1723.32L2135.3 1661.56L2108.65 1649.02L2251.31 1587.25L2222.31 1573.46L2364.96 1511.69L2311.35 1486.45L2168.54 1548.22L2197.69 1561.86L2054.88 1623.62L2081.69 1636.32L1938.87 1698.08L1969.76 1712.66L1827.1 1774.43L1856.1 1788.07L1713.45 1849.83L1740.1 1862.53L1597.44 1924.3H1597.28L1626.44 1938.09L1483.63 1999.86L1510.44 2012.4L1367.62 2074.16L1398.66 2088.74L1255.85 2150.51L1284.85 2164.3L1142.2 2226.07L1169 2238.61L1026.19 2300.37L1079.96 2325.77L1222.62 2264L1195.81 2251.31Z" fill="#323232"/>
<path d="M2331.98 1625.34L2474.79 1563.42L2421.02 1538.18L2278.36 1599.95L2307.36 1613.59L2164.71 1675.51L2191.36 1688.05L2048.7 1749.81L2079.59 1764.39L1936.77 1826.16L1965.93 1839.8L1823.12 1901.72L1849.93 1914.26L1707.11 1976.03H1707.27L1707.11 1976.18L1736.11 1989.82L1593.46 2051.59L1620.11 2064.28L1477.45 2126.05L1508.34 2140.63L1365.52 2202.39L1394.68 2216.03L1251.87 2277.8L1278.68 2290.5L1136.02 2352.26L1189.63 2377.5L1332.45 2315.74L1305.64 2303.19L1448.29 2241.43L1419.29 2227.63L1562.11 2165.87L1531.22 2151.29L1673.88 2089.52L1647.07 2076.98L1789.88 2015.22L1760.73 2001.42L1903.54 1939.66L1876.89 1926.96L2019.54 1865.19L1990.54 1851.56L2133.2 1789.79L2102.32 1775.21L2245.13 1713.45L2218.32 1700.75L2361.13 1638.98L2331.98 1625.34Z" fill="#323232"/>
<path d="M751.198 2041.71L893.854 1979.95L864.852 1966.15L1007.51 1904.39L976.625 1889.81L1119.44 1828.04L1092.63 1815.5L1235.44 1753.74L1206.29 1739.94L1349.1 1678.18H1348.94H1349.1L1322.45 1665.48L1465.1 1603.71L1436.1 1590.07L1578.76 1528.31L1547.88 1513.73L1690.69 1451.96L1663.88 1439.27L1806.69 1377.5L1777.54 1363.86L1920.35 1302.1L1866.58 1276.7L1723.92 1338.47L1752.92 1352.1L1610.27 1414.03L1636.92 1426.57L1494.26 1488.33L1525.14 1502.91L1382.33 1564.68L1411.49 1578.32L1268.68 1640.24L1295.48 1652.78L1152.67 1714.54H1152.83L1152.67 1714.7L1181.67 1728.34L1039.02 1790.11L1065.67 1802.8L923.012 1864.57L953.895 1879.15L811.082 1940.91L840.24 1954.55L697.428 2016.32L724.234 2029.01L581.422 2090.78L635.192 2116.02L777.848 2054.25L751.198 2041.71Z" fill="#323232"/>
<path d="M196.737 1780.23L339.393 1718.46L310.391 1704.67L453.047 1642.9L422.164 1628.32L564.977 1566.56L538.17 1554.02L680.983 1492.25L651.825 1478.45L794.637 1416.69H794.48H794.637L767.83 1403.99L910.643 1342.23L881.642 1328.59L1024.3 1266.82L993.415 1252.24L1136.23 1190.48L1109.42 1177.78L1252.08 1116.01L1223.07 1102.38L1365.89 1040.61L1312.12 1015.22L1169.46 1076.98L1198.46 1090.62L1055.65 1152.54L1082.46 1165.08L939.801 1226.85L970.684 1241.43L827.871 1303.19L856.873 1316.83L714.217 1378.75L741.024 1391.29L598.211 1453.06V1453.22L627.213 1466.85L484.4 1528.62L511.207 1541.32L368.551 1603.08L399.434 1617.66L256.621 1679.43L285.779 1693.07L142.967 1754.83L169.773 1767.53L26.9609 1829.29L80.7312 1854.53L223.387 1792.77L196.737 1780.23Z" fill="#323232"/>
<path d="M306.756 1832.11L449.569 1770.35L420.41 1756.71L563.223 1694.79L532.34 1680.36L674.996 1618.44L648.189 1605.9L791.002 1544.14L762 1530.34L904.656 1468.58H904.813L878.006 1455.88L1020.66 1394.11L991.66 1380.47L1134.47 1318.71L1103.59 1304.13L1246.25 1242.36L1219.44 1229.67L1362.25 1167.9L1333.25 1154.26L1475.91 1092.5L1422.29 1067.1L1279.48 1128.87L1308.48 1142.66L1165.83 1204.43L1192.63 1216.97L1049.82 1278.73L1080.7 1293.31L938.047 1355.08L967.049 1368.87L824.236 1430.64L851.043 1443.18L708.387 1504.95V1505.1H708.23L737.232 1518.74L594.576 1580.51L621.383 1593.2L478.57 1654.97L509.453 1669.55L366.797 1731.31L395.798 1744.95L252.986 1806.72L279.792 1819.41L137.137 1881.18L190.75 1906.58L333.563 1844.81L306.756 1832.11Z" fill="#323232"/>
<path d="M419.006 1885.1L561.819 1823.34L532.66 1809.54L675.473 1747.78L644.59 1733.2L787.246 1671.43L760.596 1658.89L903.252 1597.13L874.25 1583.33L1016.91 1521.56H1017.06L990.256 1508.87L1133.07 1447.1L1103.91 1433.46L1246.72 1371.54L1215.84 1357.12L1358.5 1295.35L1331.69 1282.66L1474.5 1220.89L1445.5 1207.25L1588.16 1145.33L1534.54 1120.09L1391.73 1181.86L1420.73 1195.49L1278.08 1257.26L1304.88 1269.96L1162.07 1331.72L1192.95 1346.3L1050.3 1408.07L1079.3 1421.71L936.486 1483.47L963.293 1496.17L820.637 1557.93L820.48 1558.09L849.638 1571.73L706.826 1633.49L733.633 1646.19L590.82 1707.96L621.703 1722.54L479.047 1784.3L508.048 1797.94L365.393 1859.71L392.042 1872.4L249.387 1934.17L303 1959.41L445.813 1897.64L419.006 1885.1Z" fill="#323232"/>
<path d="M529.037 1936.99L671.85 1875.22L642.692 1861.43L785.504 1799.66L754.622 1785.08L897.277 1723.32L870.627 1710.78L1013.28 1649.01L984.282 1635.22L1126.94 1573.45H1127.09L1100.29 1560.75L1243.1 1498.99L1213.94 1485.35L1356.75 1423.58L1325.87 1409L1468.53 1347.24L1441.72 1334.54L1584.53 1272.78L1555.53 1259.14L1698.19 1197.37L1644.57 1171.98L1501.76 1233.74L1530.92 1247.38L1388.11 1309.3L1414.91 1321.84L1272.1 1383.61L1302.98 1398.19L1160.33 1459.95L1189.33 1473.59L1046.67 1535.51L1073.32 1548.05L930.668 1609.82L930.511 1609.98L959.67 1623.62L816.857 1685.38L843.664 1698.08L700.851 1759.84L731.734 1774.42L589.078 1836.19L618.08 1849.83L475.424 1911.59L502.074 1924.29L359.418 1986.06L413.031 2011.29L555.844 1949.53L529.037 1936.99Z" fill="#323232"/>
<path d="M639.03 1988.73L781.686 1926.96L752.684 1913.32L895.34 1851.56L864.457 1836.98L1007.27 1775.21L980.463 1762.51L1123.28 1700.75L1094.12 1687.11L1236.93 1625.19H1236.77H1236.93L1210.28 1612.49L1352.94 1550.73L1323.93 1537.09L1466.59 1475.32L1435.71 1460.74L1578.52 1398.98L1551.71 1386.28L1694.53 1324.51L1665.37 1310.88L1808.18 1249.11L1754.41 1223.71L1611.75 1285.48L1640.76 1299.28L1497.94 1361.04L1524.75 1373.58L1382.09 1435.35L1412.98 1449.93L1270.16 1511.69L1299.32 1525.49L1156.51 1587.25L1183.32 1599.79L1040.5 1661.56L1040.66 1661.72H1040.5L1069.51 1675.35L926.85 1737.28L953.5 1749.82L810.844 1811.58L841.727 1826.16L698.914 1887.93L728.072 1901.57L585.26 1963.49L612.067 1976.03L469.254 2037.79L523.024 2063.19L665.68 2001.42L639.03 1988.73Z" fill="#323232"/>
<path d="M-27.9003 1674.25L114.912 1612.48L85.9109 1598.85L228.567 1537.08L197.684 1522.5L340.497 1460.74L313.69 1448.04L456.346 1386.27L427.344 1372.63L570.157 1310.87H570L570.157 1310.71L543.35 1298.17L686.162 1236.41L657.004 1222.61L799.817 1160.85L768.934 1146.27L911.59 1084.5L884.94 1071.96L1027.6 1010.2L998.594 996.4L1141.25 934.635L1087.64 909.396L944.824 971.161L973.982 984.799L831.17 1046.56L857.976 1059.26L715.164 1121.03L746.047 1135.61L603.391 1197.37L632.392 1211.01L489.736 1272.78L516.386 1285.47L373.731 1347.24H373.574L402.732 1361.03L259.92 1422.8L286.726 1435.34L143.914 1497.11L174.796 1511.69L32.1406 1573.45L61.142 1587.25L-81.5137 1649.01L-54.707 1661.55L-197.52 1723.32L-143.749 1748.71L-1.09349 1686.95L-27.9003 1674.25Z" fill="#323232"/>
<path d="M84.2951 1727.24L227.108 1665.47L198.106 1651.83L340.762 1590.07L309.879 1575.49L452.692 1513.72L425.885 1501.03L568.541 1439.26L539.539 1425.62L682.352 1363.7L655.545 1351L798.358 1289.24L769.356 1275.6L912.012 1213.83L881.129 1199.25L1023.94 1137.49L997.135 1124.79L1139.79 1063.03L1110.79 1049.39L1254.16 987.409L1200.3 962.025L1057.02 1023.99L1086.18 1037.79L943.365 1099.55L970.172 1112.09L827.359 1173.86L858.242 1188.44L715.586 1250.2L744.588 1264L601.932 1325.76L628.738 1338.3L485.926 1400.07V1400.23L514.927 1413.86L372.115 1475.79L398.922 1488.33L256.266 1550.09L287.148 1564.67L144.336 1626.44L173.337 1640.08L30.6816 1702L57.4883 1714.54L-85.3242 1776.3L-31.554 1801.7L111.102 1739.94L84.2951 1727.24Z" fill="#323232"/>
</g>
</g>
<defs>
<clipPath id="clip0">
<rect width="1920" height="1825" fill="white"/>
</clipPath>
</defs>
</svg>
